extratorrent.com     
http://extratorrent.com/torrent/2261004/

Plot:

A young gangster goes to the record label pick up the debt. On site, it appears that the owner had fled, leaving his rock band over a precipice. The only way for the young musician to take over the label. Argues, however, that the world entertainment industry is more dangerous than the world of gangs.

Images:

[IMG]http://img408.imageshack.us/img408/4549/gangsterrock2010dvdripe.jpg[/IMG]
[IMG]http://img59.imageshack.us/img59/4549/gangsterrock2010dvdripe.jpg[/IMG]
[IMG]http://img205.imageshack.us/img205/4549/gangsterrock2010dvdripe.jpg[/IMG]
[IMG]http://img690.imageshack.us/img690/4549/gangsterrock2010dvdripe.jpg[/IMG]
[IMG]http://img704.imageshack.us/img704/4549/gangsterrock2010dvdripe.jpg[/IMG]
[IMG]http://img227.imageshack.us/img227/4549/gangsterrock2010dvdripe.jpg[/IMG]

Info:

General
Complete name                    : Gangster Rock 2010 DVDRip(Eng Sub) GoGo(Extra Torrent)Gangster Rock 2010 DVDRip(Eng Sub) GoGo(Extra Torrent).avi
Format                           : AVI
Format/Info                      : Audio Video Interleave
File size                        : 650 MiB
Duration                         : 1h 40mn
Overall bit rate                 : 909 Kbps
Writing application              : VirtualDubMod 1.5.4.1 (build 2178/release)
Writing library                  : VirtualDubMod build 2178/release

Video
ID                               : 0
Format                           : MPEG-4 Visual
Format profile                   : Advanced Simple@L5
Format settings, BVOP            : Yes
Format settings, QPel            : No
Format settings, GMC             : No warppoints
Format settings, Matrix          : Custom
Codec ID                         : XVID
Codec ID/Hint                    : XviD
Duration                         : 1h 40mn
Bit rate                         : 793 Kbps
Width                            : 608 pixels
Height                           : 336 pixels
Display aspect ratio             : 16:9
Frame rate                       : 25.000 fps
Color space                      : YUV
Chroma subsampling               : 4:2:0
Bit depth                        : 8 bits
Scan type                        : Progressive
Bits/(Pixel*Frame)               : 0.155
Stream size                      : 568 MiB (87%)
Writing library                  : XviD 1.2.1 (UTC 2008-12-04)

Audio
ID                               : 1
Format                           : MPEG Audio
Format version                   : Version 1
Format profile                   : Layer 3
Mode                             : Joint stereo
Mode extension                   : MS Stereo
Codec ID                         : 55
Codec ID/Hint                    : MP3
Duration                         : 1h 40mn
Bit rate mode                    : Variable
Bit rate                         : 102 Kbps
Nominal bit rate                 : 128 Kbps
Channel(s)                       : 2 channels
Sampling rate                    : 48.0 KHz
Stream size                      : 73.2 MiB (11%)
Alignment                        : Aligned on interleaves
Interleave, duration             : 24 ms (0.60 video frame)
Interleave, preload duration     : 180 ms
Writing library                  : LAME3.98r
Encoding settings                : -m j -V 4 -q 2 -lowpass 17 --abr 128
Language                         : Chinese
Subtitles                        : English(*.srt)
Genre                            : Action
 
http://www.mtime.com/movie/123787